<svg width="692" height="269" viewBox="0 0 692 269" fill="none" xmlns="http://www.w3.org/2000/svg">
<g filter="url(#filter0_b_168_276)">
<rect width="692" height="269" fill="#091119" fill-opacity="0.28"/>
</g>
<path d="M260.86 126.656C253.984 126.656 248.836 131.588 248.836 139.724C248.836 147.644 253.588 152.504 260.5 152.504C266.872 152.504 270.904 149.048 271.444 143.756L271.48 143.396H266.548L266.476 143.756C265.828 146.852 263.956 148.796 260.716 148.796C256.936 148.796 254.092 145.628 254.092 139.436C254.092 133.784 256.792 130.364 260.788 130.364C264.1 130.364 265.972 132.164 266.584 135.224L266.656 135.584H271.624L271.588 135.224C271.084 130.328 267.592 126.656 260.86 126.656ZM283.748 132.344C277.376 132.344 273.812 136.592 273.812 142.424C273.812 148.22 277.376 152.504 283.748 152.504C290.12 152.504 293.684 148.22 293.684 142.424C293.684 136.592 290.12 132.344 283.748 132.344ZM283.748 149.012C280.76 149.012 278.96 146.528 278.96 142.424C278.96 138.284 280.76 135.836 283.748 135.836C286.736 135.836 288.536 138.284 288.536 142.424C288.536 146.528 286.736 149.012 283.748 149.012ZM314.796 137.708C314.4 134.36 312.06 132.344 307.992 132.344C306.156 132.344 304.752 132.704 303.384 133.676L301.908 135.944V132.848H296.94V152H301.908V143.252C301.908 137.924 303.816 135.836 306.228 135.836C308.64 135.836 309.756 137.204 309.9 139.22C309.972 140.192 309.972 141.092 309.972 141.884V152H314.94V141.2C314.94 139.652 314.904 138.68 314.796 137.708ZM325.239 136.268H329.199V132.992H325.239V128.276H320.271V132.992H317.463V136.268H320.271V145.7C320.271 146.78 320.271 147.608 320.343 148.472C320.559 151.172 321.891 152.396 325.599 152.396C326.715 152.396 327.759 152.324 328.875 152.144V148.904C326.103 149.12 325.419 148.688 325.275 146.816C325.239 146.312 325.239 145.772 325.239 145.124V136.268ZM343.431 152H348.291C348.003 149.876 347.931 148.58 347.931 147.14V140.948C347.931 139.904 347.895 138.896 347.823 137.996C347.535 134.684 345.519 132.344 340.155 132.344C335.583 132.344 332.091 134.792 331.947 139.112L336.771 139.076C336.915 136.988 337.995 135.836 339.975 135.836C341.919 135.836 342.783 136.808 342.927 138.14C342.999 138.788 342.999 139.364 342.999 139.94V140.336H341.775C334.827 140.336 331.227 142.712 331.227 146.924C331.227 150.56 334.071 152.504 337.383 152.504C339.183 152.504 340.803 152.144 342.135 151.244L343.071 149.192L343.431 152ZM339.291 149.012C337.527 149.012 336.375 148.22 336.375 146.528C336.375 144.008 339.039 143.108 342.999 143.396V144.944C342.999 147.608 341.307 149.012 339.291 149.012ZM360.802 132.344C355.546 132.344 351.226 136.016 351.226 142.568C351.226 149.192 355.15 152.504 360.37 152.504C365.158 152.504 368.686 150.092 369.514 145.376H364.546C364.042 147.788 362.602 149.012 360.658 149.012C358.174 149.012 356.374 146.996 356.374 142.244C356.374 137.888 358.174 135.836 360.694 135.836C362.746 135.836 364.186 136.988 364.654 139.76H369.55C369.19 135.512 365.986 132.344 360.802 132.344ZM378.642 136.268H382.602V132.992H378.642V128.276H373.674V132.992H370.866V136.268H373.674V145.7C373.674 146.78 373.674 147.608 373.746 148.472C373.962 151.172 375.294 152.396 379.002 152.396C380.118 152.396 381.162 152.324 382.278 152.144V148.904C379.506 149.12 378.822 148.688 378.678 146.816C378.642 146.312 378.642 145.772 378.642 145.124V136.268ZM413.802 127.16H408.87V142.388C408.87 143.108 408.87 143.648 408.798 144.188C408.582 147.032 406.854 148.796 403.578 148.796C400.266 148.796 398.538 147.032 398.322 144.188C398.25 143.648 398.25 143.108 398.25 142.388V127.16H393.318V141.884C393.318 142.928 393.318 143.648 393.39 144.8C393.714 148.94 396.594 152.504 403.578 152.504C410.526 152.504 413.406 148.94 413.73 144.8C413.802 143.648 413.802 142.928 413.802 141.884V127.16ZM424.823 132.344C420.251 132.344 417.227 134.576 417.227 138.248C417.227 141.56 419.675 143.108 423.239 144.008C426.551 144.836 427.811 145.664 427.811 147.14C427.811 148.544 426.587 149.228 425.003 149.228C423.275 149.228 421.835 148.256 421.439 146.168H416.471C417.011 150.488 420.287 152.504 424.931 152.504C429.323 152.504 432.815 150.632 432.815 146.78C432.815 143.252 430.511 141.668 426.587 140.66C423.419 139.868 422.231 139.112 422.231 137.672C422.231 136.484 423.023 135.62 424.499 135.62C426.155 135.62 427.127 136.628 427.451 138.392H432.419C431.987 134.9 429.395 132.344 424.823 132.344ZM440.341 144.908L440.773 127.16H435.913L436.345 144.908H440.341ZM438.325 146.888C436.705 146.888 435.517 148.04 435.517 149.696C435.517 151.352 436.705 152.504 438.325 152.504C439.981 152.504 441.169 151.352 441.169 149.696C441.169 148.04 439.981 146.888 438.325 146.888Z" fill="white"/>
<defs>
<filter id="filter0_b_168_276" x="-7" y="-7" width="706" height="283" filterUnits="userSpaceOnUse" color-interpolation-filters="sRGB">
<feFlood flood-opacity="0" result="BackgroundImageFix"/>
<feGaussianBlur in="BackgroundImage" stdDeviation="3.5"/>
<feComposite in2="SourceAlpha" operator="in" result="effect1_backgroundBlur_168_276"/>
<feBlend mode="normal" in="SourceGraphic" in2="effect1_backgroundBlur_168_276" result="shape"/>
</filter>
</defs>
</svg>
