<svg width="173" height="41" viewBox="0 0 173 41" fill="none" xmlns="http://www.w3.org/2000/svg">
<path d="M8.88331 21.6281C8.90139 21.3953 8.90138 21.2163 8.90138 21.0552C8.90138 17.3312 8.90138 13.6072 8.90138 9.88318C8.90138 9.14912 9.13637 8.91637 9.85941 8.91637C10.3655 8.91637 10.8717 8.91637 11.4501 8.91637C11.4501 7.96747 11.4862 7.03647 11.432 6.12338C11.4139 5.53255 11.5405 5.04915 11.9743 4.61946C13.3119 3.31248 14.6495 2.0055 15.9691 0.68062C16.421 0.215121 16.9271 0.000274804 17.5959 0.000274804C21.4641 0.0181786 25.3324 0.0360824 29.2006 0.000274804C30.4117 -0.017629 31.0805 0.841753 31.0444 1.86227C31.0082 4.18976 31.0263 6.51726 31.0263 8.93427C31.5324 8.93427 32.0024 8.93427 32.4905 8.93427C33.2677 8.93427 33.5027 9.22074 33.5027 10.0085C33.4846 13.8041 33.5027 17.5997 33.5027 21.3953C33.5027 21.449 33.5208 21.5028 33.5389 21.6102C33.7196 21.6102 33.9185 21.6281 34.0992 21.6281C36.2503 21.6281 38.4013 21.6281 40.5523 21.6281C41.908 21.6281 42.5045 22.2189 42.5045 23.5617C42.5045 27.3215 42.5045 31.0813 42.5045 34.8411C42.5045 35.5214 42.2876 36.0765 41.7815 36.5599C40.4439 37.8489 39.1424 39.1559 37.8409 40.4808C37.4794 40.8389 37.0817 41 36.5937 41C32.6351 40.9821 28.6764 40.9821 24.7178 40.9642C23.4525 40.9642 22.9102 40.4092 22.9102 39.1201C22.9102 36.8105 22.9102 34.5009 22.9102 32.1555C21.7895 32.1555 20.705 32.1555 19.5481 32.1555C19.5481 33.0865 19.53 33.9996 19.5481 34.9306C19.5662 35.5751 19.3673 36.0585 18.9154 36.5061C17.5598 37.831 16.2402 39.1738 14.9026 40.4987C14.5411 40.8568 14.1253 40.9821 13.6373 40.9821C9.67865 40.9642 5.72002 40.9642 1.76139 40.9463C0.514156 40.9463 0.00803374 40.4271 0.00803374 39.1917C0.00803374 35.2887 -0.0100422 31.3857 0.00803374 27.4826C0.00803374 27.0708 0.224944 26.5516 0.532234 26.2473C1.8337 24.9045 3.20747 23.6333 4.50894 22.2905C4.99699 21.8071 5.52119 21.5923 6.19 21.6102C7.07572 21.646 7.96144 21.6281 8.88331 21.6281ZM10.474 21.6281C10.6909 21.6281 10.8717 21.6281 11.0343 21.6281C13.2758 21.6281 15.5172 21.6281 17.7586 21.6281C18.9516 21.6281 19.5481 22.2368 19.5481 23.4185C19.5481 25.5848 19.5481 27.7512 19.5481 29.9175C19.5481 30.1145 19.5481 30.2935 19.5481 30.5084C20.705 30.5084 21.7895 30.5084 22.9102 30.5084C22.9102 29.5237 22.9283 28.5748 22.9102 27.6259C22.8921 27.0708 23.0729 26.6232 23.4706 26.2473C24.6636 25.0835 25.8928 23.9377 27.0315 22.7202C27.7726 21.9145 28.6041 21.5386 29.7068 21.6281C30.4298 21.6997 31.1709 21.646 31.894 21.646C31.894 17.8683 31.894 14.1801 31.894 10.4919C31.5867 10.4919 31.3336 10.4919 31.0444 10.4919C31.0444 11.405 31.0263 12.2823 31.0444 13.1596C31.0805 13.8757 30.8275 14.4307 30.3033 14.9141C28.9657 16.2032 27.6823 17.5281 26.3627 18.8351C26.0012 19.1932 25.5855 19.3722 25.0613 19.3722C21.1569 19.3543 17.2525 19.3722 13.3481 19.3722C12.0466 19.3722 11.4682 18.8172 11.4682 17.5102C11.4682 15.3796 11.4682 13.2491 11.4682 11.1185C11.4682 10.9037 11.4682 10.7068 11.4682 10.4919C11.0886 10.4919 10.7813 10.4919 10.4559 10.4919C10.474 14.1801 10.474 17.8504 10.474 21.6281ZM25.1697 17.7609C25.1697 17.5639 25.1697 17.4028 25.1697 17.2595C25.1697 13.6967 25.1697 10.1338 25.1697 6.57097C25.1697 5.89063 25.007 5.7474 24.3021 5.7474C20.7592 5.7474 17.2163 5.7474 13.6734 5.7474C13.4746 5.7474 13.2938 5.7474 13.0769 5.7474C13.0769 9.79366 13.0769 13.7683 13.0769 17.7788C17.1259 17.7609 21.1207 17.7609 25.1697 17.7609ZM1.58064 27.4468C1.58064 31.4752 1.58064 35.4498 1.58064 39.4245C5.62964 39.4245 9.6425 39.4245 13.6915 39.4245C13.7096 39.2633 13.7277 39.138 13.7277 39.0306C13.7277 35.414 13.7277 31.7974 13.7277 28.1809C13.7277 27.6438 13.4927 27.411 12.9323 27.411C9.29906 27.411 5.66579 27.411 2.03253 27.411C1.88793 27.4289 1.76139 27.4468 1.58064 27.4468ZM24.519 39.4245C28.5861 39.4245 32.5989 39.4245 36.6299 39.4245C36.6479 39.2275 36.6479 39.0485 36.6479 38.8694C36.6479 35.3424 36.6479 31.8153 36.6479 28.2883C36.6479 27.59 36.4672 27.411 35.7441 27.411C32.1832 27.411 28.6222 27.411 25.0613 27.411C24.8805 27.411 24.7178 27.4289 24.5009 27.4289C24.519 31.4573 24.519 35.414 24.519 39.4245ZM26.7242 16.0958C26.7604 16.1316 26.8146 16.1495 26.8508 16.1853C27.7003 15.3259 28.568 14.4666 29.4176 13.6072C29.5079 13.5177 29.5079 13.3028 29.5079 13.1596C29.5079 9.77575 29.5079 6.40984 29.5079 3.02602C29.5079 2.91859 29.4718 2.81117 29.4537 2.57842C28.7849 3.25877 28.2426 3.90331 27.5919 4.44042C26.8869 5.01334 26.6881 5.65788 26.7062 6.55307C26.7604 9.73995 26.7242 12.9268 26.7242 16.0958ZM40.9861 24.3316C40.8596 24.4211 40.7873 24.439 40.7512 24.4748C39.9558 25.2626 39.1605 26.0324 38.3832 26.8381C38.2748 26.9634 38.2025 27.1783 38.2025 27.3573C38.1844 30.7053 38.2025 34.0354 38.2025 37.3834C38.2025 37.5267 38.2205 37.6878 38.2386 37.9743C39.1063 37.1149 39.8835 36.3629 40.6246 35.5572C40.8235 35.3424 40.9681 35.0022 40.9681 34.7337C40.9861 31.4394 40.9861 28.163 40.9861 24.8687C40.9861 24.7075 40.9861 24.5643 40.9861 24.3316ZM14.6315 4.22557C14.9749 4.22557 15.1737 4.22557 15.3726 4.22557C18.084 4.22557 20.7953 4.22557 23.5067 4.22557C24.2117 4.22557 24.989 4.42252 25.5855 4.17186C26.2 3.92121 26.6339 3.22296 27.1581 2.72165C27.5377 2.34567 27.8992 1.9876 28.3692 1.5221C24.6817 1.5221 21.1388 1.5221 17.5959 1.5221C17.4874 1.5221 17.3248 1.54 17.2525 1.61162C16.3848 2.4531 15.5533 3.29458 14.6315 4.22557ZM18.0117 32.1018C17.7586 32.1018 17.5959 32.1018 17.4151 32.1018C16.656 32.0839 16.2764 31.8332 16.2944 31.314C16.3125 30.8306 16.6921 30.5621 17.3971 30.5442C17.5959 30.5442 17.7767 30.5442 17.9755 30.5442C17.9755 28.4494 17.9755 26.4084 17.9755 24.2599C17.2525 24.994 16.6379 25.6743 15.951 26.2831C15.4449 26.7307 15.2641 27.1783 15.2641 27.8765C15.3183 30.9918 15.2822 34.107 15.2822 37.2223C15.2822 37.4013 15.3003 37.5983 15.3183 37.8847C16.2402 36.9716 17.0536 36.166 17.8851 35.3245C17.9574 35.2529 18.0117 35.1096 18.0117 35.0022C18.0297 34.0712 18.0117 33.1223 18.0117 32.1018ZM39.8654 23.2394C37.6421 23.2394 35.5814 23.2394 33.4485 23.2394C33.4485 23.6333 33.4485 23.9735 33.4485 24.3316C33.4304 24.9045 33.1412 25.2446 32.6893 25.2626C32.2374 25.2626 31.9301 24.9224 31.894 24.3674C31.8759 23.9914 31.894 23.6333 31.894 23.2215C30.8636 23.2215 29.9056 23.2215 28.9476 23.2215C28.8572 23.2215 28.7307 23.2573 28.6584 23.3289C27.8088 24.1525 26.9773 24.9761 26.1277 25.8176C26.2362 25.8713 26.2723 25.8892 26.3085 25.8892C29.8514 25.8892 33.3762 25.9071 36.9191 25.9071C37.0456 25.9071 37.2083 25.8534 37.2987 25.7639C38.1301 24.9403 38.9436 24.1346 39.8654 23.2394ZM3.13517 25.8892C6.17192 25.8892 9.04599 25.8892 11.902 25.8892C12.6612 25.8892 13.4927 26.0861 14.1434 25.8176C14.7941 25.549 15.246 24.815 15.7883 24.2957C16.1318 23.9735 16.4571 23.6333 16.8367 23.2394C14.6315 23.2394 12.5527 23.2394 10.4921 23.2394C10.474 23.3289 10.4559 23.3647 10.4559 23.4006C10.4559 23.7049 10.4559 24.0093 10.4378 24.3136C10.4198 24.9045 10.1125 25.2805 9.6425 25.2626C9.17252 25.2446 8.88331 24.9045 8.88331 24.3316C8.88331 23.9735 8.88331 23.5975 8.88331 23.1857C7.87106 23.1857 6.94919 23.1857 6.04539 23.1857C5.95501 23.1857 5.82848 23.2215 5.75617 23.2931C4.90661 24.1167 4.07511 24.9582 3.13517 25.8892Z" fill="white"/>
<path d="M25.1701 17.761C21.1211 17.761 17.1263 17.761 13.0773 17.761C13.0773 13.7684 13.0773 9.79378 13.0773 5.72961C13.2942 5.72961 13.475 5.72961 13.6738 5.72961C17.2167 5.72961 20.7596 5.72961 24.3025 5.72961C25.0074 5.72961 25.1701 5.89075 25.1701 6.55319C25.1701 10.1161 25.1701 13.6789 25.1701 17.2418C25.1701 17.4029 25.1701 17.564 25.1701 17.761ZM19.1508 9.04182C17.5963 9.04182 16.4033 10.1877 16.3852 11.7274C16.3671 13.2492 17.5602 14.4488 19.1147 14.4846C20.5969 14.5025 21.8984 13.2492 21.8984 11.7632C21.8984 10.2772 20.6692 9.05972 19.1508 9.04182Z" fill="white"/>
<path d="M1.58032 27.4453C1.74301 27.4274 1.88761 27.4274 2.03222 27.4274C5.66548 27.4274 9.29874 27.4274 12.932 27.4274C13.4924 27.4274 13.7273 27.6422 13.7273 28.1972C13.7273 31.8138 13.7273 35.4304 13.7273 39.0469C13.7273 39.1723 13.7093 39.2976 13.6912 39.4408C9.66025 39.4408 5.62933 39.4408 1.58032 39.4408C1.58032 35.4483 1.58032 31.4915 1.58032 27.4453ZM4.88822 33.443C4.88822 34.9649 6.0993 36.1823 7.61768 36.1823C9.11798 36.2002 10.4014 34.9291 10.4014 33.4609C10.4014 31.9749 9.19028 30.7575 7.68998 30.7396C6.0993 30.7217 4.90629 31.8854 4.88822 33.443Z" fill="white"/>
<path d="M24.5184 39.4229C24.5184 35.4125 24.5184 31.4557 24.5184 27.4453C24.7172 27.4274 24.898 27.4274 25.0787 27.4274C28.6397 27.4274 32.2006 27.4274 35.7616 27.4274C36.4846 27.4274 36.6654 27.6064 36.6654 28.3047C36.6654 31.8317 36.6654 35.3588 36.6654 38.8858C36.6654 39.0648 36.6473 39.226 36.6473 39.4408C32.5983 39.4229 28.5855 39.4229 24.5184 39.4229ZM30.6823 30.7396C29.1458 30.7396 27.9166 31.9212 27.8986 33.443C27.8805 34.9291 29.1458 36.1823 30.6461 36.1823C32.1645 36.2002 33.4117 34.9649 33.4117 33.4609C33.4117 31.9212 32.2368 30.7396 30.6823 30.7396Z" fill="white"/>
<path d="M26.7238 16.0954C26.7238 12.9085 26.7599 9.73953 26.7057 6.55265C26.6876 5.65746 26.8865 5.01292 27.5914 4.44C28.2422 3.90289 28.7844 3.25835 29.4532 2.578C29.4894 2.79285 29.5075 2.91818 29.5075 3.0256C29.5075 6.40942 29.5075 9.77534 29.5075 13.1592C29.5075 13.3203 29.5075 13.5172 29.4171 13.6068C28.5675 14.484 27.718 15.3255 26.8503 16.1849C26.8142 16.1491 26.7599 16.1312 26.7238 16.0954Z" fill="#091119"/>
<path d="M40.9867 24.3325C40.9867 24.5653 40.9867 24.7085 40.9867 24.8696C40.9867 28.1639 40.9867 31.4403 40.9686 34.7346C40.9686 35.0211 40.8059 35.3613 40.6252 35.5582C39.884 36.346 39.0887 37.1158 38.2391 37.9752C38.2211 37.6888 38.203 37.5455 38.203 37.3844C38.203 34.0364 38.203 30.7063 38.203 27.3583C38.203 27.1792 38.2753 26.9644 38.3837 26.8391C39.161 26.0334 39.9563 25.2635 40.7517 24.4758C40.7878 24.4399 40.8601 24.4041 40.9867 24.3325Z" fill="#091119"/>
<path d="M14.6319 4.22634C15.5718 3.29534 16.4033 2.45386 17.2348 1.63029C17.3071 1.55868 17.4698 1.54077 17.5783 1.54077C21.1212 1.54077 24.646 1.54077 28.3515 1.54077C27.8996 1.98837 27.52 2.36434 27.1404 2.74032C26.6343 3.24163 26.2005 3.93988 25.5678 4.19053C24.9713 4.44118 24.1941 4.24424 23.4891 4.24424C20.7777 4.24424 18.0663 4.24424 15.3549 4.24424C15.1742 4.22634 14.9753 4.22634 14.6319 4.22634Z" fill="#091119"/>
<path d="M18.0121 32.1031C18.0121 33.1237 18.0121 34.0726 18.0121 35.0215C18.0121 35.1289 17.9579 35.2721 17.8856 35.3437C17.0721 36.1673 16.2406 36.9909 15.3188 37.904C15.3007 37.5996 15.2826 37.4206 15.2826 37.2415C15.2826 34.1263 15.3188 31.011 15.2646 27.8957C15.2465 27.1975 15.4453 26.7499 15.9514 26.3023C16.6383 25.6936 17.2529 25.0132 17.9759 24.2792C17.9759 26.4276 17.9759 28.4687 17.9759 30.5634C17.7771 30.5634 17.5963 30.5634 17.3975 30.5634C16.6925 30.5813 16.2949 30.832 16.2949 31.3333C16.2768 31.8525 16.6564 32.121 17.4156 32.121C17.5963 32.1031 17.7771 32.1031 18.0121 32.1031Z" fill="#091119"/>
<path d="M39.8656 23.2377C38.9257 24.1508 38.1123 24.9565 37.2808 25.7442C37.1904 25.8338 37.0277 25.8875 36.9012 25.8875C33.3583 25.8875 29.8335 25.8875 26.2906 25.8696C26.2545 25.8696 26.2364 25.8517 26.1099 25.798C26.9775 24.9565 27.809 24.115 28.6405 23.3093C28.7128 23.2377 28.8393 23.2019 28.9297 23.2019C29.8877 23.2019 30.8277 23.2019 31.8761 23.2019C31.8761 23.6137 31.858 23.9897 31.8761 24.3477C31.9122 24.9207 32.2195 25.2608 32.6714 25.2429C33.1233 25.2429 33.4125 24.9028 33.4306 24.3119C33.4306 23.9539 33.4306 23.6137 33.4306 23.2198C35.5816 23.2377 37.6423 23.2377 39.8656 23.2377Z" fill="#091119"/>
<path d="M3.13483 25.8887C4.07477 24.9577 4.90626 24.1162 5.73776 23.2926C5.81006 23.221 5.93659 23.1852 6.02697 23.1852C6.94884 23.1852 7.87072 23.1852 8.86489 23.1852C8.86489 23.597 8.86489 23.955 8.86489 24.331C8.88297 24.904 9.17218 25.2441 9.62408 25.262C10.0941 25.2799 10.4013 24.9039 10.4194 24.3131C10.4194 24.0088 10.4194 23.7044 10.4375 23.4C10.4375 23.3642 10.4556 23.3284 10.4736 23.2389C12.5343 23.2389 14.613 23.2389 16.8183 23.2389C16.4387 23.6328 16.0953 23.955 15.7699 24.2952C15.2276 24.8323 14.7757 25.5485 14.125 25.8171C13.4742 26.0856 12.6428 25.8887 11.8836 25.8887C9.04565 25.8887 6.17158 25.8887 3.13483 25.8887Z" fill="#091119"/>
<path d="M19.1509 9.04126C20.6692 9.04126 21.9165 10.2587 21.8984 11.7626C21.8984 13.2307 20.5969 14.5019 19.1147 14.484C17.5783 14.4661 16.3853 13.2487 16.3853 11.7268C16.4033 10.1871 17.5963 9.04126 19.1509 9.04126Z" fill="#091119"/>
<path d="M4.8894 33.4461C4.8894 31.8885 6.10049 30.7247 7.69117 30.7426C9.1734 30.7605 10.4026 31.978 10.4026 33.464C10.4026 34.9321 9.11917 36.2033 7.61887 36.1854C6.10049 36.1854 4.8894 34.9679 4.8894 33.4461Z" fill="#091119"/>
<path d="M30.6823 30.7424C32.2369 30.7424 33.4118 31.9241 33.4118 33.4638C33.4118 34.9677 32.1646 36.2031 30.6462 36.1852C29.1278 36.1673 27.8806 34.914 27.8986 33.4459C27.9167 31.9241 29.1459 30.7424 30.6823 30.7424Z" fill="#091119"/>
<path d="M19.1148 10.6721C19.7294 10.6721 20.2355 11.1734 20.2355 11.7822C20.2355 12.373 19.7113 12.8922 19.0967 12.8743C18.4821 12.8564 17.9941 12.373 17.9941 11.7643C18.0122 11.1376 18.4821 10.6721 19.1148 10.6721Z" fill="white"/>
<path d="M30.6648 32.3165C31.2793 32.3165 31.7855 32.8178 31.7855 33.4266C31.7855 34.0174 31.2613 34.5366 30.6467 34.5187C30.0321 34.5008 29.5441 34.0174 29.5441 33.4087C29.5621 32.782 30.0321 32.3165 30.6648 32.3165Z" fill="white"/>
<path d="M7.65445 32.3699C8.26903 32.3699 8.77516 32.8712 8.77516 33.4799C8.77516 34.0707 8.25096 34.59 7.63638 34.5721C7.0218 34.5542 6.53375 34.0707 6.53375 33.462C6.55183 32.8354 7.0218 32.3699 7.65445 32.3699Z" fill="white"/>
<path d="M59.8226 27.5337C60.3921 27.4446 61.0815 27.3853 61.8309 27.3853C63.1798 27.3853 64.139 27.6822 64.7685 28.276C65.428 28.8698 65.7877 29.7011 65.7877 30.859C65.7877 32.0466 65.428 32.9967 64.7385 33.6499C64.0491 34.3327 62.94 34.689 61.5312 34.689C60.8717 34.689 60.3022 34.6593 59.8226 34.5999V27.5337ZM60.7518 33.8874C60.9916 33.9171 61.3213 33.9468 61.711 33.9468C63.7194 33.9468 64.7985 32.8482 64.7985 30.8887C64.7985 29.1963 63.8393 28.0978 61.8609 28.0978C61.3813 28.0978 61.0216 28.1275 60.7518 28.1869V33.8874Z" fill="white"/>
<path d="M70.7639 31.2412H67.9462V33.8242H71.0936V34.5961H67.017V27.3815H70.9437V28.1534H67.9462V30.4395H70.7639V31.2412Z" fill="white"/>
<path d="M74.0012 34.6239L71.6331 27.4092H72.6523L73.7914 30.972C74.0911 31.9518 74.3609 32.8128 74.5707 33.6738H74.6007C74.8105 32.8425 75.1103 31.9221 75.44 31.0017L76.669 27.4389H77.6582L75.0503 34.6535H74.0012V34.6239Z" fill="white"/>
<path d="M82.2152 31.2412H79.3976V33.8242H82.545V34.5961H78.4683V27.3815H82.3951V28.1534H79.3976V30.4395H82.2152V31.2412Z" fill="white"/>
<path d="M83.7438 27.4092H84.673V33.8222H87.7905V34.5942H83.7438V27.4092Z" fill="white"/>
<path d="M94.6264 30.9433C94.6264 33.4373 93.0976 34.7436 91.2392 34.7436C89.3207 34.7436 87.9718 33.2591 87.9718 31.0918C87.9718 28.8056 89.4106 27.3211 91.3591 27.3211C93.3674 27.2914 94.6264 28.8056 94.6264 30.9433ZM88.991 31.0621C88.991 32.606 89.8303 33.9717 91.2991 33.9717C92.7979 33.9717 93.6372 32.606 93.6372 30.973C93.6372 29.5479 92.8878 28.0337 91.3291 28.0337C89.7704 28.0634 88.991 29.4885 88.991 31.0621Z" fill="white"/>
<path d="M95.8523 27.4968C96.3019 27.4078 96.9014 27.3484 97.6508 27.3484C98.5801 27.3484 99.2695 27.5562 99.6892 27.9422C100.079 28.2985 100.319 28.8032 100.319 29.4564C100.319 30.1096 100.139 30.6143 99.7491 31.0003C99.2395 31.5347 98.4302 31.8019 97.5309 31.8019C97.2611 31.8019 96.9914 31.8019 96.7815 31.7425V34.6225H95.8523V27.4968ZM96.7815 30.9706C96.9914 31.03 97.2312 31.0596 97.5609 31.0596C98.7 31.0596 99.3894 30.5252 99.3894 29.5158C99.3894 28.5657 98.7 28.0906 97.6808 28.0906C97.2611 28.0906 96.9614 28.1203 96.7815 28.1797V30.9706Z" fill="white"/>
<path d="M107.605 31.449C107.545 30.4395 107.485 29.2223 107.485 28.3316H107.455C107.215 29.1629 106.915 30.0833 106.525 31.063L105.237 34.5665H104.517L103.348 31.1224C102.988 30.113 102.719 29.1629 102.509 28.3316H102.479C102.449 29.2223 102.389 30.4395 102.329 31.5084L102.149 34.5961H101.25L101.759 27.3815H102.958L104.187 30.8552C104.487 31.7459 104.727 32.5475 104.907 33.2898H104.937C105.117 32.5772 105.386 31.7756 105.716 30.8552L107.005 27.3815H108.204L108.654 34.5961H107.724L107.605 31.449Z" fill="white"/>
<path d="M113.899 31.2412H111.082V33.8242H114.229V34.5961H110.152V27.3815H114.079V28.1534H111.082V30.4395H113.899V31.2412Z" fill="white"/>
<path d="M115.457 34.6239V27.4092H116.476L118.815 31.061C119.354 31.8924 119.774 32.6643 120.133 33.4066H120.163C120.074 32.4565 120.044 31.5658 120.044 30.4376V27.4092H120.943V34.6239H119.984L117.675 30.972C117.166 30.1704 116.686 29.339 116.327 28.5671H116.297C116.357 29.4875 116.387 30.3485 116.387 31.5361V34.6239H115.457Z" fill="white"/>
<path d="M123.94 28.2108H121.722V27.4092H127.117V28.2108H124.899V34.6239H123.94V28.2108Z" fill="white"/>
<path d="M59.8597 9.953H61.0859H63.1666C64.5414 9.953 65.6189 10.2474 66.4363 10.8731C67.2538 11.4987 67.6625 12.3084 67.6625 13.3388C67.6625 14.3325 67.2538 15.1053 66.4363 15.6942L66.1763 15.8414C66.5107 15.9886 66.7707 16.1358 67.068 16.3566C67.9969 17.019 68.4428 17.9023 68.4428 19.0064C68.4428 20.2208 67.9969 21.1777 67.1052 21.9137C66.2134 22.6498 65.0616 22.981 63.5753 22.981H61.0487H59.8226V9.953H59.8597ZM62.312 15.0317H63.1666C63.8354 15.0317 64.3556 14.9213 64.69 14.6637C65.0244 14.4061 65.2102 14.0749 65.2102 13.5964C65.2102 13.118 65.0244 12.7868 64.69 12.5292C64.3556 12.2715 63.8354 12.1611 63.1666 12.1611H62.312V15.0317ZM62.312 20.7729H63.6125C64.4299 20.7729 65.0244 20.6257 65.4331 20.3312C65.8419 20.0368 66.0276 19.5952 66.0276 19.0432C66.0276 18.4543 65.8047 18.0127 65.396 17.7183C64.9873 17.4239 64.3184 17.2767 63.4639 17.2767H62.3492V20.7729H62.312Z" fill="white"/>
<path d="M70.2285 23.0178V9.953H71.4547H72.6808V20.7729H76.7308V21.8769V23.0178H70.2285Z" fill="white"/>
<path d="M79.404 21.2877C78.0663 19.9628 77.3975 18.3803 77.3975 16.4666C77.3975 14.5897 78.0663 12.9704 79.404 11.6455C80.7416 10.3206 82.3764 9.6582 84.2714 9.6582C86.2035 9.6582 87.8012 10.3206 89.1388 11.6455C90.4764 12.9704 91.1452 14.5897 91.1452 16.4666C91.1452 18.3435 90.4764 19.9628 89.1388 21.2877C87.8012 22.6126 86.1663 23.275 84.2714 23.275C82.3764 23.275 80.7416 22.6126 79.404 21.2877ZM87.4668 19.7052C88.3214 18.822 88.7673 17.7547 88.7673 16.5034C88.7673 15.2154 88.3214 14.1481 87.4668 13.2648C86.6122 12.3816 85.5347 11.9399 84.3085 11.9399C83.0824 11.9399 82.0049 12.3816 81.1503 13.2648C80.2957 14.1481 79.8498 15.2154 79.8498 16.5034C79.8498 17.7547 80.2957 18.8588 81.1503 19.7052C82.0049 20.5517 83.0824 21.0301 84.3085 21.0301C85.5347 21.0301 86.5751 20.5885 87.4668 19.7052Z" fill="white"/>
<path d="M105.378 19.374C104.895 20.5517 104.077 21.5085 102.963 22.2078C101.848 22.907 100.585 23.275 99.2098 23.275C97.3149 23.275 95.7171 22.6126 94.3795 21.2877C93.0419 19.9628 92.3731 18.3803 92.3731 16.4666C92.3731 14.5897 93.0419 12.9704 94.3795 11.6455C95.7171 10.3206 97.3149 9.6582 99.2098 9.6582C100.585 9.6582 101.848 10.0262 103 10.7255C104.152 11.4247 104.932 12.4184 105.452 13.6328H102.665C102.257 13.1176 101.736 12.676 101.068 12.3816C100.399 12.0872 99.7672 11.9031 99.0984 11.9031C97.9465 11.9031 96.9433 12.3448 96.0887 13.228C95.2341 14.1113 94.8254 15.1417 94.8254 16.3562C94.8254 17.6443 95.2713 18.7484 96.1259 19.6316C96.9805 20.5149 98.058 20.9933 99.2841 20.9933C99.9158 20.9933 100.51 20.8461 101.105 20.5517C101.699 20.2573 102.182 19.8524 102.591 19.3372H105.378V19.374Z" fill="white"/>
<path d="M109.722 23.0178H108.496H107.27V9.953H108.496H109.722V15.731L113.884 9.953H115.296H116.707L111.691 16.3934L116.707 23.0178H115.296H113.846L109.685 17.2399V23.0178H109.722Z" fill="white"/>
<path d="M130.345 19.374C129.862 20.5517 129.044 21.5085 127.93 22.2078C126.815 22.907 125.552 23.275 124.177 23.275C122.282 23.275 120.684 22.6126 119.346 21.2877C118.009 19.9628 117.34 18.3803 117.34 16.4666C117.34 14.5897 118.009 12.9704 119.346 11.6455C120.684 10.3206 122.282 9.6582 124.177 9.6582C125.552 9.6582 126.815 10.0262 127.967 10.7255C129.119 11.4247 129.899 12.4184 130.419 13.6328H127.632C127.224 13.1176 126.703 12.676 126.035 12.3816C125.366 12.0872 124.734 11.9031 124.065 11.9031C122.913 11.9031 121.91 12.3448 121.056 13.228C120.201 14.1113 119.792 15.1417 119.792 16.3562C119.792 17.6443 120.238 18.7484 121.093 19.6316C121.947 20.5149 123.025 20.9933 124.251 20.9933C124.883 20.9933 125.477 20.8461 126.072 20.5517C126.666 20.2573 127.149 19.8524 127.558 19.3372H130.345V19.374Z" fill="white"/>
<path d="M131.904 9.953H133.13H134.357V15.2893H139.113V9.953H140.339H141.565V23.0178H140.339H139.113V17.5343H134.357V23.0178H133.13H131.904V9.953Z" fill="white"/>
<path d="M148.438 9.953H149.404H150.37L155.907 23.0178H154.569H153.231L151.931 19.632H146.952L145.651 23.0178H144.314H142.976L148.438 9.953ZM147.732 17.3871H150.965L149.33 13.2284L147.732 17.3871Z" fill="white"/>
<path d="M157.28 9.953H158.506H159.733V23.0178H158.506H157.28V9.953Z" fill="white"/>
<path d="M164.677 23.0178H163.451H162.225V9.953H163.637H165.049L170.548 19.4848V9.953H171.774H173V23.0178H171.662H170.325L164.714 13.3756V23.0178H164.677Z" fill="white"/>
</svg>
