<svg width="260" height="62" viewBox="0 0 260 62" fill="none" xmlns="http://www.w3.org/2000/svg">
<path d="M13.3506 32.7059C13.3778 32.3539 13.3778 32.0832 13.3778 31.8395C13.3778 26.2081 13.3778 20.5767 13.3778 14.9453C13.3778 13.8353 13.731 13.4833 14.8176 13.4833C15.5783 13.4833 16.3389 13.4833 17.2082 13.4833C17.2082 12.0484 17.2626 10.6405 17.1811 9.25974C17.1539 8.3663 17.3441 7.6353 17.996 6.98552C20.0063 5.00912 22.0166 3.03271 23.9998 1.02923C24.6789 0.325305 25.4396 0.000415557 26.4447 0.000415557C32.2583 0.0274896 38.0718 0.0545637 43.8854 0.000415557C45.7055 -0.0266585 46.7106 1.27289 46.6563 2.81612C46.602 6.33574 46.6291 9.85537 46.6291 13.5104C47.3898 13.5104 48.0961 13.5104 48.8296 13.5104C49.9977 13.5104 50.3509 13.9436 50.3509 15.1348C50.3237 20.8745 50.3509 26.6142 50.3509 32.3539C50.3509 32.4351 50.3781 32.5164 50.4052 32.6788C50.6769 32.6788 50.9757 32.7059 51.2474 32.7059C54.4802 32.7059 57.7129 32.7059 60.9457 32.7059C62.9832 32.7059 63.8796 33.5993 63.8796 35.6299C63.8796 41.3154 63.8796 47.001 63.8796 52.6865C63.8796 53.7153 63.5536 54.5546 62.793 55.2856C60.7827 57.235 58.8267 59.2114 56.8708 61.2149C56.3274 61.7563 55.7298 62 54.9963 62C49.0469 61.9729 43.0975 61.9729 37.1482 61.9459C35.2465 61.9459 34.4315 61.1066 34.4315 59.1572C34.4315 55.6647 34.4315 52.1721 34.4315 48.6254C32.7472 48.6254 31.1173 48.6254 29.3787 48.6254C29.3787 50.0333 29.3515 51.414 29.3787 52.8219C29.4058 53.7966 29.107 54.5276 28.4278 55.2044C26.3904 57.2079 24.4072 59.2384 22.397 61.2419C21.8536 61.7834 21.2288 61.9729 20.4953 61.9729C14.5459 61.9459 8.59656 61.9459 2.64718 61.9188C0.77272 61.9188 0.0120738 61.1336 0.0120738 59.2655C0.0120738 53.3634 -0.0150923 47.4612 0.0120738 41.5591C0.0120738 40.9364 0.338066 40.1512 0.79989 39.691C2.75585 37.6604 4.82048 35.7382 6.77644 33.7076C7.50992 32.9766 8.29774 32.6517 9.30288 32.6788C10.634 32.7329 11.9652 32.7059 13.3506 32.7059ZM15.7413 32.7059C16.0673 32.7059 16.3389 32.7059 16.5834 32.7059C19.952 32.7059 23.3206 32.7059 26.6892 32.7059C28.4822 32.7059 29.3787 33.6264 29.3787 35.4133C29.3787 38.6892 29.3787 41.9652 29.3787 45.2412C29.3787 45.539 29.3787 45.8097 29.3787 46.1346C31.1173 46.1346 32.7472 46.1346 34.4315 46.1346C34.4315 44.6455 34.4587 43.2106 34.4315 41.7757C34.4044 40.9364 34.676 40.2595 35.2737 39.691C37.0667 37.9312 38.914 36.1984 40.6254 34.3574C41.7392 33.1391 42.9889 32.5705 44.646 32.7059C45.7327 32.8142 46.8465 32.7329 47.9331 32.7329C47.9331 27.0203 47.9331 21.4431 47.9331 15.8658C47.4713 15.8658 47.091 15.8658 46.6563 15.8658C46.6563 17.2466 46.6291 18.5732 46.6563 19.8998C46.7106 20.9828 46.3303 21.8221 45.5425 22.5531C43.5322 24.5024 41.6034 26.5059 39.6203 28.4823C39.077 29.0238 38.4521 29.2945 37.6643 29.2945C31.7964 29.2675 25.9286 29.2945 20.0607 29.2945C18.1047 29.2945 17.2354 28.4552 17.2354 26.4788C17.2354 23.257 17.2354 20.0352 17.2354 16.8134C17.2354 16.4885 17.2354 16.1907 17.2354 15.8658C16.6649 15.8658 16.2031 15.8658 15.7141 15.8658C15.7413 21.4431 15.7413 26.9932 15.7413 32.7059ZM37.8273 26.8579C37.8273 26.5601 37.8273 26.3164 37.8273 26.0998C37.8273 20.7121 37.8273 15.3243 37.8273 9.93659C37.8273 8.90778 37.5828 8.69119 36.5233 8.69119C31.1988 8.69119 25.8742 8.69119 20.5497 8.69119C20.2508 8.69119 19.9792 8.69119 19.6532 8.69119C19.6532 14.8099 19.6532 20.8204 19.6532 26.8849C25.7384 26.8579 31.7421 26.8579 37.8273 26.8579ZM2.37552 41.5049C2.37552 47.5966 2.37552 53.607 2.37552 59.6175C8.46073 59.6175 14.4916 59.6175 20.5768 59.6175C20.604 59.3738 20.6312 59.1843 20.6312 59.0219C20.6312 53.5529 20.6312 48.0839 20.6312 42.615C20.6312 41.8028 20.278 41.4508 19.4359 41.4508C13.9755 41.4508 8.51507 41.4508 3.05467 41.4508C2.83735 41.4779 2.64718 41.5049 2.37552 41.5049ZM36.8493 59.6175C42.9617 59.6175 48.9926 59.6175 55.0506 59.6175C55.0778 59.3197 55.0778 59.0489 55.0778 58.7782C55.0778 53.4446 55.0778 48.111 55.0778 42.7774C55.0778 41.7215 54.8061 41.4508 53.7195 41.4508C48.3678 41.4508 43.016 41.4508 37.6643 41.4508C37.3927 41.4508 37.1482 41.4779 36.8222 41.4779C36.8493 47.5695 36.8493 53.5529 36.8493 59.6175ZM40.1636 24.34C40.2179 24.3941 40.2994 24.4212 40.3538 24.4754C41.6306 23.1758 42.9345 21.8763 44.2113 20.5767C44.3472 20.4413 44.3472 20.1164 44.3472 19.8998C44.3472 14.7828 44.3472 9.69293 44.3472 4.57593C44.3472 4.41349 44.2929 4.25104 44.2657 3.89908C43.2605 4.92789 42.4456 5.90256 41.4676 6.71478C40.4081 7.58115 40.1093 8.55582 40.1364 9.90952C40.2179 14.7287 40.1636 19.5479 40.1636 24.34ZM61.5977 36.7941C61.4075 36.9294 61.2988 36.9565 61.2445 37.0107C60.0492 38.2019 58.8539 39.3661 57.6857 40.5844C57.5228 40.7739 57.4141 41.0988 57.4141 41.3696C57.3869 46.4324 57.4141 51.4682 57.4141 56.531C57.4141 56.7476 57.4413 56.9913 57.4684 57.4245C58.7724 56.1249 59.9405 54.9878 61.0543 53.7695C61.3532 53.4446 61.5705 52.9302 61.5705 52.5241C61.5977 47.5425 61.5977 42.5879 61.5977 37.6063C61.5977 37.3626 61.5977 37.146 61.5977 36.7941ZM21.9895 6.38989C22.5056 6.38989 22.8044 6.38989 23.1033 6.38989C27.1782 6.38989 31.2531 6.38989 35.328 6.38989C36.3875 6.38989 37.5557 6.68771 38.4521 6.30867C39.3758 5.92963 40.0278 4.87374 40.8156 4.11567C41.3861 3.54712 41.9294 3.00564 42.6357 2.30171C37.0938 2.30171 31.7693 2.30171 26.4447 2.30171C26.2817 2.30171 26.0372 2.32878 25.9286 2.43708C24.6246 3.70956 23.3749 4.98204 21.9895 6.38989ZM27.0695 48.5442C26.6892 48.5442 26.4447 48.5442 26.173 48.5442C25.0321 48.5171 24.4616 48.1381 24.4888 47.3529C24.5159 46.6219 25.0864 46.2158 26.1459 46.1888C26.4447 46.1888 26.7164 46.1888 27.0152 46.1888C27.0152 43.0211 27.0152 39.9346 27.0152 36.6858C25.9286 37.7958 25.0049 38.8246 23.9726 39.7451C23.2119 40.422 22.9403 41.0988 22.9403 42.1547C23.0218 46.8656 22.9674 51.5765 22.9674 56.2874C22.9674 56.5581 22.9946 56.8559 23.0218 57.2891C24.4072 55.9083 25.6297 54.69 26.8794 53.4175C26.988 53.3092 27.0695 53.0926 27.0695 52.9302C27.0967 51.5223 27.0695 50.0874 27.0695 48.5442ZM59.9134 35.1425C56.5719 35.1425 53.475 35.1425 50.2694 35.1425C50.2694 35.7382 50.2694 36.2526 50.2694 36.7941C50.2422 37.6604 49.8076 38.1748 49.1284 38.2019C48.4493 38.2019 47.9874 37.6875 47.9331 36.8482C47.9059 36.2797 47.9331 35.7382 47.9331 35.1155C46.3846 35.1155 44.9448 35.1155 43.505 35.1155C43.3692 35.1155 43.179 35.1696 43.0704 35.2779C41.7936 36.5233 40.5439 37.7687 39.2671 39.0412C39.4301 39.1224 39.4845 39.1495 39.5388 39.1495C44.8633 39.1495 50.1607 39.1766 55.4853 39.1766C55.6755 39.1766 55.92 39.0953 56.0558 38.96C57.3054 37.7146 58.5279 36.4962 59.9134 35.1425ZM4.71181 39.1495C9.27572 39.1495 13.5951 39.1495 17.8874 39.1495C19.0284 39.1495 20.278 39.4473 21.256 39.0412C22.234 38.6351 22.9131 37.5251 23.7281 36.7399C24.2443 36.2526 24.7332 35.7382 25.3037 35.1425C21.9895 35.1425 18.8654 35.1425 15.7684 35.1425C15.7413 35.2779 15.7141 35.3321 15.7141 35.3862C15.7141 35.8465 15.7141 36.3067 15.6869 36.767C15.6598 37.6604 15.1979 38.229 14.4916 38.2019C13.7853 38.1748 13.3506 37.6604 13.3506 36.7941C13.3506 36.2526 13.3506 35.684 13.3506 35.0613C11.8293 35.0613 10.4439 35.0613 9.08556 35.0613C8.94973 35.0613 8.75956 35.1155 8.6509 35.2238C7.37409 36.4692 6.12445 37.7416 4.71181 39.1495Z" fill="white"/>
<path d="M37.8279 26.858C31.7426 26.858 25.7389 26.858 19.6537 26.858C19.6537 20.8205 19.6537 14.8101 19.6537 8.66428C19.9797 8.66428 20.2514 8.66428 20.5502 8.66428C25.8748 8.66428 31.1993 8.66428 36.5239 8.66428C37.5834 8.66428 37.8279 8.90794 37.8279 9.90968C37.8279 15.2974 37.8279 20.6852 37.8279 26.0729C37.8279 26.3166 37.8279 26.5602 37.8279 26.858ZM28.7816 13.673C26.4453 13.673 24.6523 15.4057 24.6251 17.7341C24.598 20.0354 26.3909 21.8493 28.7272 21.9035C30.9548 21.9306 32.9108 20.0354 32.9108 17.7882C32.9108 15.5411 31.0635 13.7001 28.7816 13.673Z" fill="white"/>
<path d="M2.37506 41.5027C2.61956 41.4756 2.83688 41.4756 3.05421 41.4756C8.5146 41.4756 13.975 41.4756 19.4354 41.4756C20.2775 41.4756 20.6307 41.8005 20.6307 42.6398C20.6307 48.1087 20.6307 53.5777 20.6307 59.0466C20.6307 59.2362 20.6035 59.4257 20.5764 59.6423C14.5183 59.6423 8.46027 59.6423 2.37506 59.6423C2.37506 53.6048 2.37506 47.6214 2.37506 41.5027ZM7.34646 50.5725C7.34646 52.8738 9.1666 54.7148 11.4485 54.7148C13.7033 54.7419 15.6321 52.8196 15.6321 50.5995C15.6321 48.3524 13.812 46.5114 11.5572 46.4843C9.16659 46.4572 7.37363 48.217 7.34646 50.5725Z" fill="white"/>
<path d="M36.8484 59.6152C36.8484 53.5506 36.8484 47.5672 36.8484 41.5027C37.1472 41.4756 37.4189 41.4756 37.6905 41.4756C43.0423 41.4756 48.394 41.4756 53.7457 41.4756C54.8323 41.4756 55.104 41.7463 55.104 42.8022C55.104 48.1358 55.104 53.4694 55.104 58.803C55.104 59.0737 55.0768 59.3174 55.0768 59.6423C48.9916 59.6152 42.9608 59.6152 36.8484 59.6152ZM46.112 46.4843C43.8029 46.4843 41.9556 48.2712 41.9284 50.5725C41.9013 52.8196 43.8029 54.7148 46.0577 54.7148C48.3397 54.7419 50.2141 52.8738 50.2141 50.5995C50.2141 48.2712 48.4483 46.4843 46.112 46.4843Z" fill="white"/>
<path d="M40.1629 24.3393C40.1629 19.5201 40.2173 14.728 40.1358 9.90885C40.1086 8.55515 40.4074 7.58048 41.4669 6.71411C42.4449 5.90189 43.2599 4.92722 44.265 3.89841C44.3193 4.2233 44.3465 4.41281 44.3465 4.57526C44.3465 9.69226 44.3465 14.7822 44.3465 19.8992C44.3465 20.1428 44.3465 20.4407 44.2107 20.576C42.9339 21.9027 41.6571 23.1751 40.3531 24.4747C40.2988 24.4205 40.2173 24.3935 40.1629 24.3393Z" fill="#091119"/>
<path d="M61.5985 36.7955C61.5985 37.1474 61.5985 37.364 61.5985 37.6077C61.5985 42.5893 61.5985 47.5439 61.5714 52.5255C61.5714 52.9587 61.3269 53.4731 61.0552 53.7709C59.9414 54.9622 58.7461 56.1263 57.4693 57.4259C57.4421 56.9927 57.4149 56.7761 57.4149 56.5325C57.4149 51.4696 57.4149 46.4338 57.4149 41.371C57.4149 41.1002 57.5236 40.7754 57.6866 40.5858C58.8547 39.3675 60.05 38.2033 61.2454 37.0121C61.2997 36.9579 61.4084 36.9038 61.5985 36.7955Z" fill="#091119"/>
<path d="M21.9902 6.39106C23.4028 4.98321 24.6525 3.71073 25.9021 2.46533C26.0108 2.35703 26.2553 2.32996 26.4182 2.32996C31.7428 2.32996 37.0402 2.32996 42.6093 2.32996C41.9301 3.00681 41.3596 3.57536 40.7891 4.14391C40.0285 4.90199 39.3765 5.95787 38.4257 6.33691C37.5292 6.71594 36.3611 6.41813 35.3016 6.41813C31.2267 6.41813 27.1517 6.41813 23.0768 6.41813C22.8052 6.39105 22.5063 6.39106 21.9902 6.39106Z" fill="#091119"/>
<path d="M27.0702 48.5461C27.0702 50.0894 27.0702 51.5243 27.0702 52.9592C27.0702 53.1217 26.9887 53.3382 26.88 53.4465C25.6576 54.6919 24.4079 55.9374 23.0225 57.3181C22.9953 56.8579 22.9681 56.5871 22.9681 56.3164C22.9681 51.6055 23.0225 46.8946 22.941 42.1837C22.9138 41.1278 23.2126 40.451 23.9733 39.7741C25.0056 38.8536 25.9292 37.8248 27.0159 36.7148C27.0159 39.9637 27.0159 43.0501 27.0159 46.2178C26.717 46.2178 26.4454 46.2178 26.1465 46.2178C25.0871 46.2448 24.4894 46.6239 24.4894 47.382C24.4623 48.1671 25.0327 48.5732 26.1737 48.5732C26.4454 48.5461 26.717 48.5461 27.0702 48.5461Z" fill="#091119"/>
<path d="M59.9136 35.14C58.501 36.5207 57.2785 37.7391 56.0289 38.9303C55.8931 39.0657 55.6486 39.1469 55.4584 39.1469C50.1339 39.1469 44.8365 39.1469 39.5119 39.1198C39.4576 39.1198 39.4304 39.0928 39.2402 39.0116C40.5442 37.7391 41.7938 36.4666 43.0435 35.2483C43.1522 35.14 43.3423 35.0858 43.4782 35.0858C44.918 35.0858 46.3306 35.0858 47.9062 35.0858C47.9062 35.7085 47.8791 36.2771 47.9062 36.8186C47.9606 37.6849 48.4224 38.1993 49.1015 38.1723C49.7807 38.1723 50.2153 37.6578 50.2425 36.7644C50.2425 36.2229 50.2425 35.7085 50.2425 35.1129C53.4753 35.14 56.5722 35.14 59.9136 35.14Z" fill="#091119"/>
<path d="M4.7113 39.1488C6.12394 37.7409 7.37358 36.4685 8.62322 35.2231C8.73189 35.1148 8.92205 35.0606 9.05788 35.0606C10.4434 35.0606 11.8288 35.0606 13.323 35.0606C13.323 35.6833 13.323 36.2248 13.323 36.7933C13.3501 37.6597 13.7848 38.1741 14.4639 38.2012C15.1703 38.2283 15.6321 37.6597 15.6592 36.7663C15.6592 36.306 15.6592 35.8458 15.6864 35.3855C15.6864 35.3314 15.7136 35.2772 15.7407 35.1418C18.8377 35.1418 21.9618 35.1418 25.276 35.1418C24.7056 35.7375 24.1894 36.2248 23.7004 36.7392C22.8854 37.5514 22.2063 38.6344 21.2283 39.0405C20.2503 39.4466 19.0007 39.1488 17.8597 39.1488C13.5946 39.1488 9.27521 39.1488 4.7113 39.1488Z" fill="#091119"/>
<path d="M28.7816 13.6722C31.0635 13.6722 32.938 15.5132 32.9108 17.7874C32.9108 20.0075 30.9549 21.9298 28.7273 21.9027C26.4181 21.8756 24.6252 20.0346 24.6252 17.7333C24.6523 15.4049 26.4453 13.6722 28.7816 13.6722Z" fill="#091119"/>
<path d="M7.34821 50.577C7.34821 48.2216 9.16834 46.4618 11.559 46.4889C13.7866 46.5159 15.6339 48.357 15.6339 50.6041C15.6339 52.8242 13.7051 54.7464 11.4503 54.7194C9.16834 54.7194 7.34821 52.8783 7.34821 50.577Z" fill="#091119"/>
<path d="M46.1122 46.4886C48.4485 46.4886 50.2143 48.2754 50.2143 50.6038C50.2143 52.878 48.3398 54.7461 46.0578 54.719C43.7759 54.692 41.9014 52.7968 41.9286 50.5767C41.9557 48.2754 43.803 46.4886 46.1122 46.4886Z" fill="#091119"/>
<path d="M28.7274 16.1383C29.6511 16.1383 30.4117 16.8964 30.4117 17.8169C30.4117 18.7103 29.6239 19.4955 28.7003 19.4684C27.7766 19.4413 27.0432 18.7103 27.0432 17.7898C27.0703 16.8422 27.7766 16.1383 28.7274 16.1383Z" fill="white"/>
<path d="M46.0858 48.869C47.0094 48.869 47.7701 49.627 47.7701 50.5475C47.7701 51.441 46.9823 52.2261 46.0586 52.1991C45.135 52.172 44.4015 51.441 44.4015 50.5205C44.4287 49.5729 45.135 48.869 46.0858 48.869Z" fill="white"/>
<path d="M11.5038 48.9496C12.4275 48.9496 13.1881 49.7077 13.1881 50.6283C13.1881 51.5217 12.4003 52.3069 11.4766 52.2798C10.553 52.2527 9.81952 51.5217 9.81952 50.6012C9.84669 49.6536 10.553 48.9496 11.5038 48.9496Z" fill="white"/>
<path d="M89.9067 41.6364C90.7627 41.5017 91.7988 41.4119 92.9251 41.4119C94.9523 41.4119 96.3939 41.8608 97.34 42.7588C98.331 43.6567 98.8716 44.9138 98.8716 46.6648C98.8716 48.4607 98.331 49.8974 97.2949 50.8852C96.2588 51.9178 94.5919 52.4566 92.4746 52.4566C91.4835 52.4566 90.6275 52.4117 89.9067 52.3219V41.6364ZM91.3033 51.2443C91.6637 51.2892 92.1592 51.3341 92.7449 51.3341C95.7632 51.3341 97.385 49.6729 97.385 46.7097C97.385 44.1506 95.9434 42.4894 92.9701 42.4894C92.2493 42.4894 91.7087 42.5343 91.3033 42.6241V51.2443Z" fill="white"/>
<path d="M106.35 47.2428H102.116V51.1489H106.846V52.3162H100.719V41.4062H106.621V42.5735H102.116V46.0306H106.35V47.2428Z" fill="white"/>
<path d="M111.216 52.358L107.657 41.448H109.188L110.9 46.8357C111.351 48.3173 111.756 49.6193 112.072 50.9213H112.117C112.432 49.6642 112.883 48.2724 113.378 46.8806L115.225 41.4929H116.712L112.792 52.4029H111.216V52.358Z" fill="white"/>
<path d="M123.56 47.2428H119.326V51.1489H124.056V52.3162H117.929V41.4062H123.831V42.5735H119.326V46.0306H123.56V47.2428Z" fill="white"/>
<path d="M125.858 41.448H127.254V51.1458H131.939V52.3131H125.858V41.448Z" fill="white"/>
<path d="M142.213 46.7923C142.213 50.5637 139.915 52.5392 137.122 52.5392C134.239 52.5392 132.212 50.2943 132.212 47.0168C132.212 43.5597 134.374 41.3149 137.303 41.3149C140.321 41.27 142.213 43.5597 142.213 46.7923ZM133.744 46.9719C133.744 49.3066 135.005 51.3719 137.213 51.3719C139.465 51.3719 140.726 49.3066 140.726 46.8372C140.726 44.6822 139.6 42.3924 137.258 42.3924C134.915 42.4373 133.744 44.5924 133.744 46.9719Z" fill="white"/>
<path d="M144.055 41.5805C144.731 41.4458 145.632 41.356 146.758 41.356C148.155 41.356 149.191 41.6703 149.822 42.254C150.408 42.7927 150.768 43.556 150.768 44.5437C150.768 45.5315 150.498 46.2947 149.912 46.8784C149.146 47.6865 147.93 48.0906 146.578 48.0906C146.173 48.0906 145.767 48.0906 145.452 48.0008V52.3558H144.055V41.5805ZM145.452 46.8335C145.767 46.9233 146.128 46.9682 146.623 46.9682C148.335 46.9682 149.371 46.16 149.371 44.6335C149.371 43.1968 148.335 42.4784 146.804 42.4784C146.173 42.4784 145.722 42.5234 145.452 42.6131V46.8335Z" fill="white"/>
<path d="M161.718 47.5571C161.628 46.0306 161.538 44.1898 161.538 42.8429H161.493C161.132 44.1 160.682 45.4918 160.096 46.9734L158.159 52.2713H157.078L155.321 47.0632C154.78 45.5367 154.375 44.1 154.059 42.8429H154.014C153.969 44.1898 153.879 46.0306 153.789 47.6469L153.519 52.3162H152.167L152.933 41.4062H154.735L156.582 46.6592C157.033 48.0061 157.393 49.2183 157.663 50.3407H157.708C157.979 49.2632 158.384 48.051 158.88 46.6592L160.817 41.4062H162.619L163.295 52.3162H161.898L161.718 47.5571Z" fill="white"/>
<path d="M171.178 47.2428H166.943V51.1489H171.674V52.3162H165.547V41.4062H171.448V42.5735H166.943V46.0306H171.178V47.2428Z" fill="white"/>
<path d="M173.52 52.358V41.448H175.051L178.565 46.9704C179.376 48.2275 180.007 49.3948 180.547 50.5172H180.592C180.457 49.0805 180.412 47.7336 180.412 46.0275V41.448H181.764V52.358H180.322L176.853 46.8357C176.087 45.6235 175.367 44.3663 174.826 43.199H174.781C174.871 44.5908 174.916 45.8928 174.916 47.6887V52.358H173.52Z" fill="white"/>
<path d="M186.268 42.6602H182.934V41.448H191.043V42.6602H187.709V52.358H186.268V42.6602Z" fill="white"/>
<path d="M89.9626 15.0508H91.8053H94.9325C96.9986 15.0508 98.618 15.4961 99.8465 16.4421C101.075 17.3882 101.689 18.6126 101.689 20.1708C101.689 21.6735 101.075 22.8421 99.8465 23.7326L99.4556 23.9552C99.9582 24.1778 100.349 24.4004 100.796 24.7343C102.192 25.7361 102.862 27.0717 102.862 28.7413C102.862 30.5778 102.192 32.0248 100.852 33.1378C99.5115 34.2508 97.7804 34.7517 95.5467 34.7517H91.7495H89.9067V15.0508H89.9626ZM93.6481 22.7309H94.9325C95.9376 22.7309 96.7194 22.5639 97.222 22.1743C97.7245 21.7848 98.0037 21.2839 98.0037 20.5604C98.0037 19.8369 97.7245 19.3361 97.222 18.9465C96.7194 18.5569 95.9376 18.39 94.9325 18.39H93.6481V22.7309ZM93.6481 31.4126H95.6026C96.8311 31.4126 97.7245 31.19 98.3388 30.7448C98.9531 30.2995 99.2323 29.6317 99.2323 28.7969C99.2323 27.9065 98.8972 27.2387 98.283 26.7935C97.6687 26.3482 96.6635 26.1256 95.3792 26.1256H93.704V31.4126H93.6481Z" fill="white"/>
<path d="M105.546 34.8074V15.0508H107.388H109.231V31.4126H115.318V33.0822V34.8074H105.546Z" fill="white"/>
<path d="M119.335 32.1912C117.325 30.1877 116.32 27.7947 116.32 24.9007C116.32 22.0625 117.325 19.6138 119.335 17.6103C121.346 15.6068 123.803 14.6051 126.651 14.6051C129.554 14.6051 131.956 15.6068 133.966 17.6103C135.976 19.6138 136.981 22.0625 136.981 24.9007C136.981 27.739 135.976 30.1877 133.966 32.1912C131.956 34.1947 129.499 35.1964 126.651 35.1964C123.803 35.1964 121.346 34.1947 119.335 32.1912ZM131.453 29.7981C132.737 28.4625 133.407 26.8486 133.407 24.9564C133.407 23.0086 132.737 21.3946 131.453 20.059C130.169 18.7233 128.549 18.0555 126.706 18.0555C124.864 18.0555 123.244 18.7233 121.96 20.059C120.676 21.3946 120.005 23.0086 120.005 24.9564C120.005 26.8486 120.676 28.5181 121.96 29.7981C123.244 31.0781 124.864 31.8016 126.706 31.8016C128.549 31.8016 130.113 31.1338 131.453 29.7981Z" fill="white"/>
<path d="M158.371 29.2973C157.645 31.0781 156.417 32.5251 154.741 33.5825C153.066 34.6399 151.168 35.1964 149.101 35.1964C146.254 35.1964 143.852 34.1947 141.842 32.1912C139.832 30.1877 138.827 27.7947 138.827 24.9007C138.827 22.0625 139.832 19.6138 141.842 17.6103C143.852 15.6068 146.254 14.6051 149.101 14.6051C151.168 14.6051 153.066 15.1616 154.797 16.219C156.528 17.2764 157.701 18.779 158.483 20.6155H154.295C153.68 19.8364 152.899 19.1686 151.894 18.7233C150.888 18.2781 149.939 17.9999 148.934 17.9999C147.203 17.9999 145.695 18.6677 144.411 20.0033C143.126 21.339 142.512 22.8973 142.512 24.7338C142.512 26.6816 143.182 28.3512 144.467 29.6868C145.751 31.0225 147.37 31.746 149.213 31.746C150.162 31.746 151.056 31.5234 151.949 31.0781C152.843 30.6329 153.569 30.0207 154.183 29.2416H158.371V29.2973Z" fill="white"/>
<path d="M164.9 34.8074H163.058H161.215V15.0508H163.058H164.9V23.7882L171.155 15.0508H173.277H175.399L167.86 24.79L175.399 34.8074H173.277H171.099L164.845 26.07V34.8074H164.9Z" fill="white"/>
<path d="M195.894 29.2973C195.168 31.0781 193.939 32.5251 192.264 33.5825C190.589 34.6399 188.69 35.1964 186.624 35.1964C183.776 35.1964 181.375 34.1947 179.365 32.1912C177.354 30.1877 176.349 27.7947 176.349 24.9007C176.349 22.0625 177.354 19.6138 179.365 17.6103C181.375 15.6068 183.776 14.6051 186.624 14.6051C188.69 14.6051 190.589 15.1616 192.32 16.219C194.051 17.2764 195.224 18.779 196.005 20.6155H191.817C191.203 19.8364 190.421 19.1686 189.416 18.7233C188.411 18.2781 187.462 17.9999 186.456 17.9999C184.725 17.9999 183.218 18.6677 181.933 20.0033C180.649 21.339 180.035 22.8973 180.035 24.7338C180.035 26.6816 180.705 28.3512 181.989 29.6868C183.274 31.0225 184.893 31.746 186.736 31.746C187.685 31.746 188.578 31.5234 189.472 31.0781C190.365 30.6329 191.091 30.0207 191.706 29.2416H195.894V29.2973Z" fill="white"/>
<path d="M198.238 15.0508H200.08H201.923V23.1204H209.071V15.0508H210.914H212.756V34.8074H210.914H209.071V26.5152H201.923V34.8074H200.08H198.238V15.0508Z" fill="white"/>
<path d="M223.086 15.0508H224.538H225.99L234.31 34.8074H232.3H230.29L228.335 29.6874H220.853L218.898 34.8074H216.888H214.878L223.086 15.0508ZM222.025 26.2926H226.883L224.426 20.0039L222.025 26.2926Z" fill="white"/>
<path d="M236.375 15.0508H238.218H240.061V34.8074H238.218H236.375V15.0508Z" fill="white"/>
<path d="M247.491 34.8074H245.649H243.806V15.0508H245.928H248.05L256.314 29.4648V15.0508H258.157H260V34.8074H257.99H255.979L247.547 20.2265V34.8074H247.491Z" fill="white"/>
</svg>
